%TF.GenerationSoftware,KiCad,Pcbnew,9.0.1*%
%TF.CreationDate,2025-11-17T22:12:27+05:30*%
%TF.ProjectId,Project_1,50726f6a-6563-4745-9f31-2e6b69636164,rev?*%
%TF.SameCoordinates,Original*%
%TF.FileFunction,Copper,L2,Bot*%
%TF.FilePolarity,Positive*%
%FSLAX46Y46*%
G04 Gerber Fmt 4.6, Leading zero omitted, Abs format (unit mm)*
G04 Created by KiCad (PCBNEW 9.0.1) date 2025-11-17 22:12:27*
%MOMM*%
%LPD*%
G01*
G04 APERTURE LIST*
%TA.AperFunction,ComponentPad*%
%ADD10R,1.700000X1.700000*%
%TD*%
%TA.AperFunction,ComponentPad*%
%ADD11C,1.700000*%
%TD*%
%TA.AperFunction,ComponentPad*%
%ADD12R,1.800000X1.800000*%
%TD*%
%TA.AperFunction,ComponentPad*%
%ADD13C,1.800000*%
%TD*%
%TA.AperFunction,ViaPad*%
%ADD14C,0.600000*%
%TD*%
%TA.AperFunction,Conductor*%
%ADD15C,0.200000*%
%TD*%
G04 APERTURE END LIST*
D10*
%TO.P,J2,1,Pin_1*%
%TO.N,Net-(J2-Pin_1)*%
X140890000Y-85250000D03*
D11*
%TO.P,J2,2,Pin_2*%
%TO.N,Net-(J2-Pin_2)*%
X143430000Y-85250000D03*
%TO.P,J2,3,Pin_3*%
%TO.N,Net-(J2-Pin_3)*%
X145970000Y-85250000D03*
%TO.P,J2,4,Pin_4*%
%TO.N,GND*%
X148510000Y-85250000D03*
%TD*%
D10*
%TO.P,J1,1,Pin_1*%
%TO.N,Net-(J1-Pin_1)*%
X140730000Y-69000000D03*
D11*
%TO.P,J1,2,Pin_2*%
%TO.N,Net-(J1-Pin_2)*%
X143270000Y-69000000D03*
%TO.P,J1,3,Pin_3*%
%TO.N,Net-(J1-Pin_3)*%
X145810000Y-69000000D03*
%TO.P,J1,4,Pin_4*%
%TO.N,+5V*%
X148350000Y-69000000D03*
%TD*%
D12*
%TO.P,D3,1,K*%
%TO.N,GND*%
X150730000Y-80350000D03*
D13*
%TO.P,D3,2,A*%
%TO.N,Net-(D3-A)*%
X153270000Y-80350000D03*
%TD*%
D14*
%TO.N,+5V*%
X131700000Y-82200000D03*
X133950000Y-76000000D03*
X132550000Y-74550000D03*
X123200000Y-73200000D03*
%TO.N,GND*%
X146000000Y-82900000D03*
X136300000Y-82250000D03*
%TO.N,Net-(D2-K)*%
X122950000Y-76250000D03*
X131800000Y-76200000D03*
%TO.N,Net-(J1-Pin_2)*%
X139450000Y-72400000D03*
%TO.N,Net-(J2-Pin_2)*%
X142300000Y-80850000D03*
X138450000Y-77800000D03*
%TO.N,Net-(J2-Pin_1)*%
X147900000Y-82300000D03*
%TD*%
D15*
%TO.N,+5V*%
X132550000Y-74550000D02*
X124550000Y-74550000D01*
X131700000Y-82200000D02*
X131700000Y-78250000D01*
X124550000Y-74550000D02*
X123200000Y-73200000D01*
X131700000Y-78250000D02*
X133950000Y-76000000D01*
%TO.N,GND*%
X148148943Y-81699000D02*
X136851000Y-81699000D01*
X136851000Y-81699000D02*
X136300000Y-82250000D01*
X148501000Y-82548943D02*
X148501000Y-82051057D01*
X148501000Y-82051057D02*
X148148943Y-81699000D01*
X146000000Y-82900000D02*
X148149943Y-82900000D01*
X148149943Y-82900000D02*
X148501000Y-82548943D01*
%TO.N,Net-(D2-K)*%
X131750000Y-76250000D02*
X131800000Y-76200000D01*
X122950000Y-76250000D02*
X131750000Y-76250000D01*
%TO.N,Net-(J1-Pin_2)*%
X139450000Y-72400000D02*
X139870000Y-72400000D01*
X139870000Y-72400000D02*
X143270000Y-69000000D01*
%TO.N,Net-(J2-Pin_2)*%
X138450000Y-77800000D02*
X141500000Y-80850000D01*
X141500000Y-80850000D02*
X142300000Y-80850000D01*
%TO.N,Net-(J2-Pin_1)*%
X142500000Y-82300000D02*
X140890000Y-83910000D01*
X140890000Y-83910000D02*
X140890000Y-85250000D01*
X147900000Y-82300000D02*
X142500000Y-82300000D01*
%TD*%
M02*
