%TF.GenerationSoftware,KiCad,Pcbnew,9.0.1*%
%TF.CreationDate,2025-11-17T22:12:27+05:30*%
%TF.ProjectId,Project_1,50726f6a-6563-4745-9f31-2e6b69636164,rev?*%
%TF.SameCoordinates,Original*%
%TF.FileFunction,Legend,Top*%
%TF.FilePolarity,Positive*%
%FSLAX46Y46*%
G04 Gerber Fmt 4.6, Leading zero omitted, Abs format (unit mm)*
G04 Created by KiCad (PCBNEW 9.0.1) date 2025-11-17 22:12:27*
%MOMM*%
%LPD*%
G01*
G04 APERTURE LIST*
%ADD10C,0.100000*%
%ADD11C,0.150000*%
%ADD12C,0.120000*%
G04 APERTURE END LIST*
D10*
X153476436Y-85700388D02*
G75*
G02*
X151677918Y-85647534I-900036J-12D01*
G01*
X153403884Y-84477180D02*
X153451503Y-84524800D01*
X153451503Y-84524800D02*
X153403884Y-84572419D01*
X153403884Y-84572419D02*
X153356265Y-84524800D01*
X153356265Y-84524800D02*
X153403884Y-84477180D01*
X153403884Y-84477180D02*
X153403884Y-84572419D01*
X151494360Y-84022419D02*
X151684836Y-84022419D01*
X151684836Y-84022419D02*
X151780074Y-84070038D01*
X151780074Y-84070038D02*
X151875312Y-84165276D01*
X151875312Y-84165276D02*
X151922931Y-84355752D01*
X151922931Y-84355752D02*
X151922931Y-84689085D01*
X151922931Y-84689085D02*
X151875312Y-84879561D01*
X151875312Y-84879561D02*
X151780074Y-84974800D01*
X151780074Y-84974800D02*
X151684836Y-85022419D01*
X151684836Y-85022419D02*
X151494360Y-85022419D01*
X151494360Y-85022419D02*
X151399122Y-84974800D01*
X151399122Y-84974800D02*
X151303884Y-84879561D01*
X151303884Y-84879561D02*
X151256265Y-84689085D01*
X151256265Y-84689085D02*
X151256265Y-84355752D01*
X151256265Y-84355752D02*
X151303884Y-84165276D01*
X151303884Y-84165276D02*
X151399122Y-84070038D01*
X151399122Y-84070038D02*
X151494360Y-84022419D01*
X153303884Y-84022419D02*
X153494360Y-84022419D01*
X153494360Y-84022419D02*
X153589598Y-84070038D01*
X153589598Y-84070038D02*
X153684836Y-84165276D01*
X153684836Y-84165276D02*
X153732455Y-84355752D01*
X153732455Y-84355752D02*
X153732455Y-84689085D01*
X153732455Y-84689085D02*
X153684836Y-84879561D01*
X153684836Y-84879561D02*
X153589598Y-84974800D01*
X153589598Y-84974800D02*
X153494360Y-85022419D01*
X153494360Y-85022419D02*
X153303884Y-85022419D01*
X153303884Y-85022419D02*
X153208646Y-84974800D01*
X153208646Y-84974800D02*
X153113408Y-84879561D01*
X153113408Y-84879561D02*
X153065789Y-84689085D01*
X153065789Y-84689085D02*
X153065789Y-84355752D01*
X153065789Y-84355752D02*
X153113408Y-84165276D01*
X153113408Y-84165276D02*
X153208646Y-84070038D01*
X153208646Y-84070038D02*
X153303884Y-84022419D01*
X151603884Y-84477180D02*
X151651503Y-84524800D01*
X151651503Y-84524800D02*
X151603884Y-84572419D01*
X151603884Y-84572419D02*
X151556265Y-84524800D01*
X151556265Y-84524800D02*
X151603884Y-84477180D01*
X151603884Y-84477180D02*
X151603884Y-84572419D01*
D11*
X137433333Y-82804819D02*
X137100000Y-82328628D01*
X136861905Y-82804819D02*
X136861905Y-81804819D01*
X136861905Y-81804819D02*
X137242857Y-81804819D01*
X137242857Y-81804819D02*
X137338095Y-81852438D01*
X137338095Y-81852438D02*
X137385714Y-81900057D01*
X137385714Y-81900057D02*
X137433333Y-81995295D01*
X137433333Y-81995295D02*
X137433333Y-82138152D01*
X137433333Y-82138152D02*
X137385714Y-82233390D01*
X137385714Y-82233390D02*
X137338095Y-82281009D01*
X137338095Y-82281009D02*
X137242857Y-82328628D01*
X137242857Y-82328628D02*
X136861905Y-82328628D01*
X138385714Y-82804819D02*
X137814286Y-82804819D01*
X138100000Y-82804819D02*
X138100000Y-81804819D01*
X138100000Y-81804819D02*
X138004762Y-81947676D01*
X138004762Y-81947676D02*
X137909524Y-82042914D01*
X137909524Y-82042914D02*
X137814286Y-82090533D01*
X152433333Y-71304819D02*
X152100000Y-70828628D01*
X151861905Y-71304819D02*
X151861905Y-70304819D01*
X151861905Y-70304819D02*
X152242857Y-70304819D01*
X152242857Y-70304819D02*
X152338095Y-70352438D01*
X152338095Y-70352438D02*
X152385714Y-70400057D01*
X152385714Y-70400057D02*
X152433333Y-70495295D01*
X152433333Y-70495295D02*
X152433333Y-70638152D01*
X152433333Y-70638152D02*
X152385714Y-70733390D01*
X152385714Y-70733390D02*
X152338095Y-70781009D01*
X152338095Y-70781009D02*
X152242857Y-70828628D01*
X152242857Y-70828628D02*
X151861905Y-70828628D01*
X152766667Y-70304819D02*
X153385714Y-70304819D01*
X153385714Y-70304819D02*
X153052381Y-70685771D01*
X153052381Y-70685771D02*
X153195238Y-70685771D01*
X153195238Y-70685771D02*
X153290476Y-70733390D01*
X153290476Y-70733390D02*
X153338095Y-70781009D01*
X153338095Y-70781009D02*
X153385714Y-70876247D01*
X153385714Y-70876247D02*
X153385714Y-71114342D01*
X153385714Y-71114342D02*
X153338095Y-71209580D01*
X153338095Y-71209580D02*
X153290476Y-71257200D01*
X153290476Y-71257200D02*
X153195238Y-71304819D01*
X153195238Y-71304819D02*
X152909524Y-71304819D01*
X152909524Y-71304819D02*
X152814286Y-71257200D01*
X152814286Y-71257200D02*
X152766667Y-71209580D01*
X137533333Y-77704819D02*
X137200000Y-77228628D01*
X136961905Y-77704819D02*
X136961905Y-76704819D01*
X136961905Y-76704819D02*
X137342857Y-76704819D01*
X137342857Y-76704819D02*
X137438095Y-76752438D01*
X137438095Y-76752438D02*
X137485714Y-76800057D01*
X137485714Y-76800057D02*
X137533333Y-76895295D01*
X137533333Y-76895295D02*
X137533333Y-77038152D01*
X137533333Y-77038152D02*
X137485714Y-77133390D01*
X137485714Y-77133390D02*
X137438095Y-77181009D01*
X137438095Y-77181009D02*
X137342857Y-77228628D01*
X137342857Y-77228628D02*
X136961905Y-77228628D01*
X137914286Y-76800057D02*
X137961905Y-76752438D01*
X137961905Y-76752438D02*
X138057143Y-76704819D01*
X138057143Y-76704819D02*
X138295238Y-76704819D01*
X138295238Y-76704819D02*
X138390476Y-76752438D01*
X138390476Y-76752438D02*
X138438095Y-76800057D01*
X138438095Y-76800057D02*
X138485714Y-76895295D01*
X138485714Y-76895295D02*
X138485714Y-76990533D01*
X138485714Y-76990533D02*
X138438095Y-77133390D01*
X138438095Y-77133390D02*
X137866667Y-77704819D01*
X137866667Y-77704819D02*
X138485714Y-77704819D01*
X137964819Y-85583333D02*
X138679104Y-85583333D01*
X138679104Y-85583333D02*
X138821961Y-85630952D01*
X138821961Y-85630952D02*
X138917200Y-85726190D01*
X138917200Y-85726190D02*
X138964819Y-85869047D01*
X138964819Y-85869047D02*
X138964819Y-85964285D01*
X138060057Y-85154761D02*
X138012438Y-85107142D01*
X138012438Y-85107142D02*
X137964819Y-85011904D01*
X137964819Y-85011904D02*
X137964819Y-84773809D01*
X137964819Y-84773809D02*
X138012438Y-84678571D01*
X138012438Y-84678571D02*
X138060057Y-84630952D01*
X138060057Y-84630952D02*
X138155295Y-84583333D01*
X138155295Y-84583333D02*
X138250533Y-84583333D01*
X138250533Y-84583333D02*
X138393390Y-84630952D01*
X138393390Y-84630952D02*
X138964819Y-85202380D01*
X138964819Y-85202380D02*
X138964819Y-84583333D01*
X128109580Y-82466666D02*
X128157200Y-82514285D01*
X128157200Y-82514285D02*
X128204819Y-82657142D01*
X128204819Y-82657142D02*
X128204819Y-82752380D01*
X128204819Y-82752380D02*
X128157200Y-82895237D01*
X128157200Y-82895237D02*
X128061961Y-82990475D01*
X128061961Y-82990475D02*
X127966723Y-83038094D01*
X127966723Y-83038094D02*
X127776247Y-83085713D01*
X127776247Y-83085713D02*
X127633390Y-83085713D01*
X127633390Y-83085713D02*
X127442914Y-83038094D01*
X127442914Y-83038094D02*
X127347676Y-82990475D01*
X127347676Y-82990475D02*
X127252438Y-82895237D01*
X127252438Y-82895237D02*
X127204819Y-82752380D01*
X127204819Y-82752380D02*
X127204819Y-82657142D01*
X127204819Y-82657142D02*
X127252438Y-82514285D01*
X127252438Y-82514285D02*
X127300057Y-82466666D01*
X128204819Y-81514285D02*
X128204819Y-82085713D01*
X128204819Y-81799999D02*
X127204819Y-81799999D01*
X127204819Y-81799999D02*
X127347676Y-81895237D01*
X127347676Y-81895237D02*
X127442914Y-81990475D01*
X127442914Y-81990475D02*
X127490533Y-82085713D01*
X132204819Y-73388094D02*
X131204819Y-73388094D01*
X131204819Y-73388094D02*
X131204819Y-73149999D01*
X131204819Y-73149999D02*
X131252438Y-73007142D01*
X131252438Y-73007142D02*
X131347676Y-72911904D01*
X131347676Y-72911904D02*
X131442914Y-72864285D01*
X131442914Y-72864285D02*
X131633390Y-72816666D01*
X131633390Y-72816666D02*
X131776247Y-72816666D01*
X131776247Y-72816666D02*
X131966723Y-72864285D01*
X131966723Y-72864285D02*
X132061961Y-72911904D01*
X132061961Y-72911904D02*
X132157200Y-73007142D01*
X132157200Y-73007142D02*
X132204819Y-73149999D01*
X132204819Y-73149999D02*
X132204819Y-73388094D01*
X132204819Y-71864285D02*
X132204819Y-72435713D01*
X132204819Y-72149999D02*
X131204819Y-72149999D01*
X131204819Y-72149999D02*
X131347676Y-72245237D01*
X131347676Y-72245237D02*
X131442914Y-72340475D01*
X131442914Y-72340475D02*
X131490533Y-72435713D01*
D10*
X123238095Y-76607419D02*
X123238095Y-77416942D01*
X123238095Y-77416942D02*
X123285714Y-77512180D01*
X123285714Y-77512180D02*
X123333333Y-77559800D01*
X123333333Y-77559800D02*
X123428571Y-77607419D01*
X123428571Y-77607419D02*
X123619047Y-77607419D01*
X123619047Y-77607419D02*
X123714285Y-77559800D01*
X123714285Y-77559800D02*
X123761904Y-77512180D01*
X123761904Y-77512180D02*
X123809523Y-77416942D01*
X123809523Y-77416942D02*
X123809523Y-76607419D01*
X124238095Y-76702657D02*
X124285714Y-76655038D01*
X124285714Y-76655038D02*
X124380952Y-76607419D01*
X124380952Y-76607419D02*
X124619047Y-76607419D01*
X124619047Y-76607419D02*
X124714285Y-76655038D01*
X124714285Y-76655038D02*
X124761904Y-76702657D01*
X124761904Y-76702657D02*
X124809523Y-76797895D01*
X124809523Y-76797895D02*
X124809523Y-76893133D01*
X124809523Y-76893133D02*
X124761904Y-77035990D01*
X124761904Y-77035990D02*
X124190476Y-77607419D01*
X124190476Y-77607419D02*
X124809523Y-77607419D01*
X123303884Y-74022419D02*
X123303884Y-74831942D01*
X123303884Y-74831942D02*
X123351503Y-74927180D01*
X123351503Y-74927180D02*
X123399122Y-74974800D01*
X123399122Y-74974800D02*
X123494360Y-75022419D01*
X123494360Y-75022419D02*
X123684836Y-75022419D01*
X123684836Y-75022419D02*
X123780074Y-74974800D01*
X123780074Y-74974800D02*
X123827693Y-74927180D01*
X123827693Y-74927180D02*
X123875312Y-74831942D01*
X123875312Y-74831942D02*
X123875312Y-74022419D01*
X124303884Y-74974800D02*
X124446741Y-75022419D01*
X124446741Y-75022419D02*
X124684836Y-75022419D01*
X124684836Y-75022419D02*
X124780074Y-74974800D01*
X124780074Y-74974800D02*
X124827693Y-74927180D01*
X124827693Y-74927180D02*
X124875312Y-74831942D01*
X124875312Y-74831942D02*
X124875312Y-74736704D01*
X124875312Y-74736704D02*
X124827693Y-74641466D01*
X124827693Y-74641466D02*
X124780074Y-74593847D01*
X124780074Y-74593847D02*
X124684836Y-74546228D01*
X124684836Y-74546228D02*
X124494360Y-74498609D01*
X124494360Y-74498609D02*
X124399122Y-74450990D01*
X124399122Y-74450990D02*
X124351503Y-74403371D01*
X124351503Y-74403371D02*
X124303884Y-74308133D01*
X124303884Y-74308133D02*
X124303884Y-74212895D01*
X124303884Y-74212895D02*
X124351503Y-74117657D01*
X124351503Y-74117657D02*
X124399122Y-74070038D01*
X124399122Y-74070038D02*
X124494360Y-74022419D01*
X124494360Y-74022419D02*
X124732455Y-74022419D01*
X124732455Y-74022419D02*
X124875312Y-74070038D01*
X125637217Y-74498609D02*
X125780074Y-74546228D01*
X125780074Y-74546228D02*
X125827693Y-74593847D01*
X125827693Y-74593847D02*
X125875312Y-74689085D01*
X125875312Y-74689085D02*
X125875312Y-74831942D01*
X125875312Y-74831942D02*
X125827693Y-74927180D01*
X125827693Y-74927180D02*
X125780074Y-74974800D01*
X125780074Y-74974800D02*
X125684836Y-75022419D01*
X125684836Y-75022419D02*
X125303884Y-75022419D01*
X125303884Y-75022419D02*
X125303884Y-74022419D01*
X125303884Y-74022419D02*
X125637217Y-74022419D01*
X125637217Y-74022419D02*
X125732455Y-74070038D01*
X125732455Y-74070038D02*
X125780074Y-74117657D01*
X125780074Y-74117657D02*
X125827693Y-74212895D01*
X125827693Y-74212895D02*
X125827693Y-74308133D01*
X125827693Y-74308133D02*
X125780074Y-74403371D01*
X125780074Y-74403371D02*
X125732455Y-74450990D01*
X125732455Y-74450990D02*
X125637217Y-74498609D01*
X125637217Y-74498609D02*
X125303884Y-74498609D01*
D11*
X137804819Y-69333333D02*
X138519104Y-69333333D01*
X138519104Y-69333333D02*
X138661961Y-69380952D01*
X138661961Y-69380952D02*
X138757200Y-69476190D01*
X138757200Y-69476190D02*
X138804819Y-69619047D01*
X138804819Y-69619047D02*
X138804819Y-69714285D01*
X138804819Y-68333333D02*
X138804819Y-68904761D01*
X138804819Y-68619047D02*
X137804819Y-68619047D01*
X137804819Y-68619047D02*
X137947676Y-68714285D01*
X137947676Y-68714285D02*
X138042914Y-68809523D01*
X138042914Y-68809523D02*
X138090533Y-68904761D01*
X136504819Y-72816666D02*
X136028628Y-73149999D01*
X136504819Y-73388094D02*
X135504819Y-73388094D01*
X135504819Y-73388094D02*
X135504819Y-73007142D01*
X135504819Y-73007142D02*
X135552438Y-72911904D01*
X135552438Y-72911904D02*
X135600057Y-72864285D01*
X135600057Y-72864285D02*
X135695295Y-72816666D01*
X135695295Y-72816666D02*
X135838152Y-72816666D01*
X135838152Y-72816666D02*
X135933390Y-72864285D01*
X135933390Y-72864285D02*
X135981009Y-72911904D01*
X135981009Y-72911904D02*
X136028628Y-73007142D01*
X136028628Y-73007142D02*
X136028628Y-73388094D01*
X135838152Y-71959523D02*
X136504819Y-71959523D01*
X135457200Y-72197618D02*
X136171485Y-72435713D01*
X136171485Y-72435713D02*
X136171485Y-71816666D01*
X136154819Y-83188094D02*
X135154819Y-83188094D01*
X135154819Y-83188094D02*
X135154819Y-82949999D01*
X135154819Y-82949999D02*
X135202438Y-82807142D01*
X135202438Y-82807142D02*
X135297676Y-82711904D01*
X135297676Y-82711904D02*
X135392914Y-82664285D01*
X135392914Y-82664285D02*
X135583390Y-82616666D01*
X135583390Y-82616666D02*
X135726247Y-82616666D01*
X135726247Y-82616666D02*
X135916723Y-82664285D01*
X135916723Y-82664285D02*
X136011961Y-82711904D01*
X136011961Y-82711904D02*
X136107200Y-82807142D01*
X136107200Y-82807142D02*
X136154819Y-82949999D01*
X136154819Y-82949999D02*
X136154819Y-83188094D01*
X135250057Y-82235713D02*
X135202438Y-82188094D01*
X135202438Y-82188094D02*
X135154819Y-82092856D01*
X135154819Y-82092856D02*
X135154819Y-81854761D01*
X135154819Y-81854761D02*
X135202438Y-81759523D01*
X135202438Y-81759523D02*
X135250057Y-81711904D01*
X135250057Y-81711904D02*
X135345295Y-81664285D01*
X135345295Y-81664285D02*
X135440533Y-81664285D01*
X135440533Y-81664285D02*
X135583390Y-81711904D01*
X135583390Y-81711904D02*
X136154819Y-82283332D01*
X136154819Y-82283332D02*
X136154819Y-81664285D01*
X151261905Y-77844819D02*
X151261905Y-76844819D01*
X151261905Y-76844819D02*
X151500000Y-76844819D01*
X151500000Y-76844819D02*
X151642857Y-76892438D01*
X151642857Y-76892438D02*
X151738095Y-76987676D01*
X151738095Y-76987676D02*
X151785714Y-77082914D01*
X151785714Y-77082914D02*
X151833333Y-77273390D01*
X151833333Y-77273390D02*
X151833333Y-77416247D01*
X151833333Y-77416247D02*
X151785714Y-77606723D01*
X151785714Y-77606723D02*
X151738095Y-77701961D01*
X151738095Y-77701961D02*
X151642857Y-77797200D01*
X151642857Y-77797200D02*
X151500000Y-77844819D01*
X151500000Y-77844819D02*
X151261905Y-77844819D01*
X152166667Y-76844819D02*
X152785714Y-76844819D01*
X152785714Y-76844819D02*
X152452381Y-77225771D01*
X152452381Y-77225771D02*
X152595238Y-77225771D01*
X152595238Y-77225771D02*
X152690476Y-77273390D01*
X152690476Y-77273390D02*
X152738095Y-77321009D01*
X152738095Y-77321009D02*
X152785714Y-77416247D01*
X152785714Y-77416247D02*
X152785714Y-77654342D01*
X152785714Y-77654342D02*
X152738095Y-77749580D01*
X152738095Y-77749580D02*
X152690476Y-77797200D01*
X152690476Y-77797200D02*
X152595238Y-77844819D01*
X152595238Y-77844819D02*
X152309524Y-77844819D01*
X152309524Y-77844819D02*
X152214286Y-77797200D01*
X152214286Y-77797200D02*
X152166667Y-77749580D01*
X143688095Y-80254819D02*
X143688095Y-81064342D01*
X143688095Y-81064342D02*
X143735714Y-81159580D01*
X143735714Y-81159580D02*
X143783333Y-81207200D01*
X143783333Y-81207200D02*
X143878571Y-81254819D01*
X143878571Y-81254819D02*
X144069047Y-81254819D01*
X144069047Y-81254819D02*
X144164285Y-81207200D01*
X144164285Y-81207200D02*
X144211904Y-81159580D01*
X144211904Y-81159580D02*
X144259523Y-81064342D01*
X144259523Y-81064342D02*
X144259523Y-80254819D01*
X144640476Y-80254819D02*
X145259523Y-80254819D01*
X145259523Y-80254819D02*
X144926190Y-80635771D01*
X144926190Y-80635771D02*
X145069047Y-80635771D01*
X145069047Y-80635771D02*
X145164285Y-80683390D01*
X145164285Y-80683390D02*
X145211904Y-80731009D01*
X145211904Y-80731009D02*
X145259523Y-80826247D01*
X145259523Y-80826247D02*
X145259523Y-81064342D01*
X145259523Y-81064342D02*
X145211904Y-81159580D01*
X145211904Y-81159580D02*
X145164285Y-81207200D01*
X145164285Y-81207200D02*
X145069047Y-81254819D01*
X145069047Y-81254819D02*
X144783333Y-81254819D01*
X144783333Y-81254819D02*
X144688095Y-81207200D01*
X144688095Y-81207200D02*
X144640476Y-81159580D01*
D12*
%TO.C,R1*%
X137322936Y-79215000D02*
X137777064Y-79215000D01*
X137322936Y-80685000D02*
X137777064Y-80685000D01*
%TO.C,R3*%
X152372936Y-71765000D02*
X152827064Y-71765000D01*
X152372936Y-73235000D02*
X152827064Y-73235000D01*
%TO.C,R2*%
X137627064Y-74715000D02*
X137172936Y-74715000D01*
X137627064Y-76185000D02*
X137172936Y-76185000D01*
%TO.C,J2*%
X139510000Y-86630000D02*
X139510000Y-85250000D01*
X140890000Y-86630000D02*
X139510000Y-86630000D01*
X142160000Y-83870000D02*
X149890000Y-83870000D01*
X142160000Y-86630000D02*
X142160000Y-83870000D01*
X142160000Y-86630000D02*
X149890000Y-86630000D01*
X149890000Y-86630000D02*
X149890000Y-83870000D01*
%TO.C,C1*%
X128890000Y-81261252D02*
X128890000Y-79838748D01*
X130710000Y-81261252D02*
X130710000Y-79838748D01*
%TO.C,D1*%
X128750000Y-71490000D02*
X128750000Y-75500000D01*
X130750000Y-71490000D02*
X128750000Y-71490000D01*
X130750000Y-71490000D02*
X130750000Y-75500000D01*
%TO.C,J1*%
X139350000Y-70380000D02*
X139350000Y-69000000D01*
X140730000Y-70380000D02*
X139350000Y-70380000D01*
X142000000Y-67620000D02*
X149730000Y-67620000D01*
X142000000Y-70380000D02*
X142000000Y-67620000D01*
X142000000Y-70380000D02*
X149730000Y-70380000D01*
X149730000Y-70380000D02*
X149730000Y-67620000D01*
%TO.C,R4*%
X133165000Y-73577064D02*
X133165000Y-73122936D01*
X134635000Y-73577064D02*
X134635000Y-73122936D01*
%TO.C,D2*%
X132550000Y-78290000D02*
X132550000Y-82300000D01*
X134550000Y-78290000D02*
X132550000Y-78290000D01*
X134550000Y-78290000D02*
X134550000Y-82300000D01*
%TO.C,D3*%
X150440000Y-79114000D02*
X150440000Y-79270000D01*
X150440000Y-81430000D02*
X150440000Y-81586000D01*
X150440000Y-79114484D02*
G75*
G02*
X153671397Y-79269939I1560000J-1235516D01*
G01*
X150959039Y-79270000D02*
G75*
G02*
X153040910Y-79269951I1040961J-1080000D01*
G01*
X153040910Y-81430049D02*
G75*
G02*
X150959039Y-81430000I-1040910J1080049D01*
G01*
X153671397Y-81430061D02*
G75*
G02*
X150440000Y-81585516I-1671397J1080061D01*
G01*
%TO.C,U3*%
X141690000Y-74440000D02*
X141690000Y-74710000D01*
X141690000Y-79960000D02*
X141690000Y-79690000D01*
X144450000Y-74440000D02*
X141690000Y-74440000D01*
X144450000Y-74440000D02*
X147210000Y-74440000D01*
X144450000Y-79960000D02*
X141690000Y-79960000D01*
X144450000Y-79960000D02*
X147210000Y-79960000D01*
X147210000Y-74440000D02*
X147210000Y-74710000D01*
X147210000Y-79960000D02*
X147210000Y-79690000D01*
X148215000Y-80020000D02*
X147735000Y-80020000D01*
X147975000Y-79690000D01*
X148215000Y-80020000D01*
G36*
X148215000Y-80020000D02*
G01*
X147735000Y-80020000D01*
X147975000Y-79690000D01*
X148215000Y-80020000D01*
G37*
%TD*%
M02*
