%TF.GenerationSoftware,KiCad,Pcbnew,9.0.1*%
%TF.CreationDate,2025-11-17T22:12:27+05:30*%
%TF.ProjectId,Project_1,50726f6a-6563-4745-9f31-2e6b69636164,rev?*%
%TF.SameCoordinates,Original*%
%TF.FileFunction,Copper,L1,Top*%
%TF.FilePolarity,Positive*%
%FSLAX46Y46*%
G04 Gerber Fmt 4.6, Leading zero omitted, Abs format (unit mm)*
G04 Created by KiCad (PCBNEW 9.0.1) date 2025-11-17 22:12:27*
%MOMM*%
%LPD*%
G01*
G04 APERTURE LIST*
G04 Aperture macros list*
%AMRoundRect*
0 Rectangle with rounded corners*
0 $1 Rounding radius*
0 $2 $3 $4 $5 $6 $7 $8 $9 X,Y pos of 4 corners*
0 Add a 4 corners polygon primitive as box body*
4,1,4,$2,$3,$4,$5,$6,$7,$8,$9,$2,$3,0*
0 Add four circle primitives for the rounded corners*
1,1,$1+$1,$2,$3*
1,1,$1+$1,$4,$5*
1,1,$1+$1,$6,$7*
1,1,$1+$1,$8,$9*
0 Add four rect primitives between the rounded corners*
20,1,$1+$1,$2,$3,$4,$5,0*
20,1,$1+$1,$4,$5,$6,$7,0*
20,1,$1+$1,$6,$7,$8,$9,0*
20,1,$1+$1,$8,$9,$2,$3,0*%
G04 Aperture macros list end*
%TA.AperFunction,SMDPad,CuDef*%
%ADD10RoundRect,0.250000X-0.350000X-0.450000X0.350000X-0.450000X0.350000X0.450000X-0.350000X0.450000X0*%
%TD*%
%TA.AperFunction,SMDPad,CuDef*%
%ADD11RoundRect,0.250000X0.350000X0.450000X-0.350000X0.450000X-0.350000X-0.450000X0.350000X-0.450000X0*%
%TD*%
%TA.AperFunction,ComponentPad*%
%ADD12R,1.700000X1.700000*%
%TD*%
%TA.AperFunction,ComponentPad*%
%ADD13C,1.700000*%
%TD*%
%TA.AperFunction,SMDPad,CuDef*%
%ADD14RoundRect,0.250000X0.650000X-0.412500X0.650000X0.412500X-0.650000X0.412500X-0.650000X-0.412500X0*%
%TD*%
%TA.AperFunction,SMDPad,CuDef*%
%ADD15RoundRect,0.225000X-0.375000X0.225000X-0.375000X-0.225000X0.375000X-0.225000X0.375000X0.225000X0*%
%TD*%
%TA.AperFunction,SMDPad,CuDef*%
%ADD16RoundRect,0.500000X-3.000000X-0.500000X3.000000X-0.500000X3.000000X0.500000X-3.000000X0.500000X0*%
%TD*%
%TA.AperFunction,SMDPad,CuDef*%
%ADD17RoundRect,0.225000X-2.775000X-0.525000X2.775000X-0.525000X2.775000X0.525000X-2.775000X0.525000X0*%
%TD*%
%TA.AperFunction,SMDPad,CuDef*%
%ADD18RoundRect,0.300000X-3.200000X-0.700000X3.200000X-0.700000X3.200000X0.700000X-3.200000X0.700000X0*%
%TD*%
%TA.AperFunction,SMDPad,CuDef*%
%ADD19RoundRect,0.250000X0.450000X-0.350000X0.450000X0.350000X-0.450000X0.350000X-0.450000X-0.350000X0*%
%TD*%
%TA.AperFunction,ComponentPad*%
%ADD20R,1.800000X1.800000*%
%TD*%
%TA.AperFunction,ComponentPad*%
%ADD21C,1.800000*%
%TD*%
%TA.AperFunction,SMDPad,CuDef*%
%ADD22RoundRect,0.162500X0.650000X0.162500X-0.650000X0.162500X-0.650000X-0.162500X0.650000X-0.162500X0*%
%TD*%
%TA.AperFunction,ViaPad*%
%ADD23C,0.600000*%
%TD*%
%TA.AperFunction,Conductor*%
%ADD24C,0.200000*%
%TD*%
G04 APERTURE END LIST*
D10*
%TO.P,R1,1*%
%TO.N,Net-(J2-Pin_3)*%
X136550000Y-79950000D03*
%TO.P,R1,2*%
%TO.N,Net-(D1-K)*%
X138550000Y-79950000D03*
%TD*%
%TO.P,R3,1*%
%TO.N,Net-(J1-Pin_2)*%
X151600000Y-72500000D03*
%TO.P,R3,2*%
%TO.N,Net-(D3-A)*%
X153600000Y-72500000D03*
%TD*%
D11*
%TO.P,R2,1*%
%TO.N,Net-(J2-Pin_2)*%
X138400000Y-75450000D03*
%TO.P,R2,2*%
%TO.N,Net-(D2-K)*%
X136400000Y-75450000D03*
%TD*%
D12*
%TO.P,J2,1,Pin_1*%
%TO.N,Net-(J2-Pin_1)*%
X140890000Y-85250000D03*
D13*
%TO.P,J2,2,Pin_2*%
%TO.N,Net-(J2-Pin_2)*%
X143430000Y-85250000D03*
%TO.P,J2,3,Pin_3*%
%TO.N,Net-(J2-Pin_3)*%
X145970000Y-85250000D03*
%TO.P,J2,4,Pin_4*%
%TO.N,GND*%
X148510000Y-85250000D03*
%TD*%
D14*
%TO.P,C1,1*%
%TO.N,+5V*%
X129800000Y-82112500D03*
%TO.P,C1,2*%
%TO.N,GND*%
X129800000Y-78987500D03*
%TD*%
D15*
%TO.P,D1,1,K*%
%TO.N,Net-(D1-K)*%
X129750000Y-72200000D03*
%TO.P,D1,2,A*%
%TO.N,GND*%
X129750000Y-75500000D03*
%TD*%
D16*
%TO.P,U2,1,Vcc*%
%TO.N,+5V*%
X119000000Y-73400000D03*
D17*
%TO.P,U2,2,D+*%
%TO.N,Net-(D2-K)*%
X119000000Y-76150000D03*
%TO.P,U2,3,D-*%
%TO.N,Net-(D1-K)*%
X119000000Y-78150000D03*
D18*
%TO.P,U2,4,GND*%
%TO.N,GND*%
X119000000Y-80900000D03*
%TD*%
D12*
%TO.P,J1,1,Pin_1*%
%TO.N,Net-(J1-Pin_1)*%
X140730000Y-69000000D03*
D13*
%TO.P,J1,2,Pin_2*%
%TO.N,Net-(J1-Pin_2)*%
X143270000Y-69000000D03*
%TO.P,J1,3,Pin_3*%
%TO.N,Net-(J1-Pin_3)*%
X145810000Y-69000000D03*
%TO.P,J1,4,Pin_4*%
%TO.N,+5V*%
X148350000Y-69000000D03*
%TD*%
D19*
%TO.P,R4,1*%
%TO.N,+5V*%
X133900000Y-74350000D03*
%TO.P,R4,2*%
%TO.N,Net-(D2-K)*%
X133900000Y-72350000D03*
%TD*%
D15*
%TO.P,D2,1,K*%
%TO.N,Net-(D2-K)*%
X133550000Y-79000000D03*
%TO.P,D2,2,A*%
%TO.N,GND*%
X133550000Y-82300000D03*
%TD*%
D20*
%TO.P,D3,1,K*%
%TO.N,GND*%
X150730000Y-80350000D03*
D21*
%TO.P,D3,2,A*%
%TO.N,Net-(D3-A)*%
X153270000Y-80350000D03*
%TD*%
D22*
%TO.P,U3,1,~{RESET}/PB5*%
%TO.N,Net-(J2-Pin_1)*%
X148037500Y-79105000D03*
%TO.P,U3,2,XTAL1/PB3*%
%TO.N,Net-(J2-Pin_2)*%
X148037500Y-77835000D03*
%TO.P,U3,3,XTAL2/PB4*%
%TO.N,Net-(J2-Pin_3)*%
X148037500Y-76565000D03*
%TO.P,U3,4,GND*%
%TO.N,GND*%
X148037500Y-75295000D03*
%TO.P,U3,5,AREF/PB0*%
%TO.N,Net-(J1-Pin_1)*%
X140862500Y-75295000D03*
%TO.P,U3,6,PB1*%
%TO.N,Net-(J1-Pin_2)*%
X140862500Y-76565000D03*
%TO.P,U3,7,PB2*%
%TO.N,Net-(J1-Pin_3)*%
X140862500Y-77835000D03*
%TO.P,U3,8,VCC*%
%TO.N,+5V*%
X140862500Y-79105000D03*
%TD*%
D23*
%TO.N,+5V*%
X131700000Y-82200000D03*
X133950000Y-76000000D03*
X132550000Y-74550000D03*
X123200000Y-73200000D03*
%TO.N,GND*%
X146000000Y-82900000D03*
X136300000Y-82250000D03*
%TO.N,Net-(D2-K)*%
X122950000Y-76250000D03*
X131800000Y-76200000D03*
%TO.N,Net-(J1-Pin_2)*%
X139450000Y-72400000D03*
%TO.N,Net-(J2-Pin_2)*%
X142300000Y-80850000D03*
X138450000Y-77800000D03*
%TO.N,Net-(J2-Pin_1)*%
X147900000Y-82300000D03*
%TD*%
D24*
%TO.N,+5V*%
X115199000Y-73701000D02*
X115500000Y-73400000D01*
X115551056Y-82201000D02*
X115199000Y-81848944D01*
X115199000Y-81848944D02*
X115199000Y-73701000D01*
X129800000Y-82112500D02*
X129837500Y-82112500D01*
X115500000Y-73400000D02*
X119000000Y-73400000D01*
X123200000Y-73200000D02*
X123000000Y-73400000D01*
X152501000Y-73185160D02*
X151017160Y-74669000D01*
X131612500Y-82112500D02*
X131700000Y-82200000D01*
X123000000Y-73400000D02*
X119000000Y-73400000D01*
X133900000Y-74350000D02*
X132750000Y-74350000D01*
X133900000Y-74950000D02*
X137498000Y-78548000D01*
X133950000Y-74400000D02*
X133900000Y-74350000D01*
X141674999Y-79105000D02*
X140862500Y-79105000D01*
X133900000Y-74350000D02*
X133900000Y-74950000D01*
X132750000Y-74350000D02*
X132550000Y-74550000D01*
X152501000Y-71814840D02*
X152501000Y-73185160D01*
X148350000Y-69000000D02*
X149686160Y-69000000D01*
X129800000Y-82112500D02*
X129711500Y-82201000D01*
X129837500Y-82112500D02*
X130025000Y-82300000D01*
X133950000Y-76000000D02*
X133950000Y-74400000D01*
X146110999Y-74669000D02*
X141674999Y-79105000D01*
X140305500Y-78548000D02*
X140862500Y-79105000D01*
X149686160Y-69000000D02*
X152501000Y-71814840D01*
X137498000Y-78548000D02*
X140305500Y-78548000D01*
X129800000Y-82112500D02*
X131612500Y-82112500D01*
X151017160Y-74669000D02*
X146110999Y-74669000D01*
X129711500Y-82201000D02*
X115551056Y-82201000D01*
%TO.N,GND*%
X136300000Y-82250000D02*
X136250000Y-82300000D01*
X130237500Y-78987500D02*
X133550000Y-82300000D01*
X148510000Y-85250000D02*
X146160000Y-82900000D01*
X129800000Y-78987500D02*
X130237500Y-78987500D01*
X150730000Y-83030000D02*
X148510000Y-85250000D01*
X146160000Y-82900000D02*
X146000000Y-82900000D01*
X136250000Y-82300000D02*
X133550000Y-82300000D01*
X150730000Y-80350000D02*
X150730000Y-83030000D01*
X150730000Y-80350000D02*
X150730000Y-77175001D01*
X127887500Y-80900000D02*
X129800000Y-78987500D01*
X150730000Y-77175001D02*
X148849999Y-75295000D01*
X119000000Y-80900000D02*
X127887500Y-80900000D01*
X129800000Y-75300000D02*
X129800000Y-78987500D01*
X148849999Y-75295000D02*
X148037500Y-75295000D01*
%TO.N,Net-(D1-K)*%
X127099000Y-74701000D02*
X129800000Y-72000000D01*
X138550000Y-79950000D02*
X137549000Y-80951000D01*
X115699000Y-77849000D02*
X115699000Y-75400890D01*
X116398890Y-74701000D02*
X127099000Y-74701000D01*
X115699000Y-75400890D02*
X116398890Y-74701000D01*
X129501000Y-71701000D02*
X129800000Y-72000000D01*
X130701000Y-72901000D02*
X129800000Y-72000000D01*
X116000000Y-78150000D02*
X115699000Y-77849000D01*
X133951000Y-80951000D02*
X130701000Y-77701000D01*
X130701000Y-77701000D02*
X130701000Y-72901000D01*
X119000000Y-78150000D02*
X116000000Y-78150000D01*
X129800000Y-71800000D02*
X129800000Y-72000000D01*
X137549000Y-80951000D02*
X133951000Y-80951000D01*
%TO.N,Net-(D2-K)*%
X133550000Y-77950000D02*
X133550000Y-79000000D01*
X122850000Y-76150000D02*
X122950000Y-76250000D01*
X133900000Y-72350000D02*
X136400000Y-74850000D01*
X131800000Y-74450000D02*
X133900000Y-72350000D01*
X136400000Y-74850000D02*
X136400000Y-75450000D01*
X119000000Y-76150000D02*
X122850000Y-76150000D01*
X131800000Y-76200000D02*
X131800000Y-74450000D01*
X131800000Y-76200000D02*
X133550000Y-77950000D01*
%TO.N,Net-(D3-A)*%
X153270000Y-80350000D02*
X153270000Y-72830000D01*
X153270000Y-72830000D02*
X153600000Y-72500000D01*
%TO.N,Net-(J1-Pin_1)*%
X140730000Y-75162500D02*
X140862500Y-75295000D01*
X140730000Y-69000000D02*
X140730000Y-75162500D01*
%TO.N,Net-(J1-Pin_3)*%
X142793240Y-67849000D02*
X141976000Y-68666240D01*
X145810000Y-69000000D02*
X144659000Y-67849000D01*
X141976000Y-77124000D02*
X141265000Y-77835000D01*
X141265000Y-77835000D02*
X140862500Y-77835000D01*
X141976000Y-68666240D02*
X141976000Y-77124000D01*
X144659000Y-67849000D02*
X142793240Y-67849000D01*
%TO.N,Net-(J1-Pin_2)*%
X146770000Y-72500000D02*
X143270000Y-69000000D01*
X140862500Y-76565000D02*
X140050001Y-76565000D01*
X139450000Y-75964999D02*
X139450000Y-72400000D01*
X140050001Y-76565000D02*
X139450000Y-75964999D01*
X151600000Y-72500000D02*
X146770000Y-72500000D01*
%TO.N,Net-(J2-Pin_3)*%
X145970000Y-85250000D02*
X145399000Y-84679000D01*
X144819000Y-86401000D02*
X142953240Y-86401000D01*
X145399000Y-84679000D02*
X145399000Y-80271010D01*
X149151000Y-78193990D02*
X149151000Y-77476010D01*
X142953240Y-86401000D02*
X142041000Y-85488760D01*
X149151000Y-77476010D02*
X148239990Y-76565000D01*
X145399000Y-80271010D02*
X147209010Y-78461000D01*
X139135160Y-78949000D02*
X137551000Y-78949000D01*
X142041000Y-85488760D02*
X142041000Y-81854840D01*
X142041000Y-81854840D02*
X139135160Y-78949000D01*
X137551000Y-78949000D02*
X136550000Y-79950000D01*
X148239990Y-76565000D02*
X148037500Y-76565000D01*
X148883990Y-78461000D02*
X149151000Y-78193990D01*
X145970000Y-85250000D02*
X144819000Y-86401000D01*
X147209010Y-78461000D02*
X148883990Y-78461000D01*
%TO.N,Net-(J2-Pin_2)*%
X143430000Y-81630001D02*
X143430000Y-85250000D01*
X148037500Y-77835000D02*
X147225001Y-77835000D01*
X143650000Y-80850000D02*
X143930000Y-81130000D01*
X142300000Y-80850000D02*
X143650000Y-80850000D01*
X138400000Y-77750000D02*
X138450000Y-77800000D01*
X147225001Y-77835000D02*
X143930000Y-81130000D01*
X138400000Y-75450000D02*
X138400000Y-77750000D01*
X143930000Y-81130000D02*
X143430000Y-81630001D01*
%TO.N,Net-(J2-Pin_1)*%
X148037500Y-82162500D02*
X147900000Y-82300000D01*
X148037500Y-79105000D02*
X148037500Y-82162500D01*
%TD*%
M02*
